<?xml version="1.0" encoding="utf-8"?>
<!-- Generator: Adobe Illustrator 26.0.3, SVG Export Plug-In . SVG Version: 6.00 Build 0)  -->
<svg version="1.1" id="Layer_1" xmlns="http://www.w3.org/2000/svg" xmlns:xlink="http://www.w3.org/1999/xlink" x="0px" y="0px"
	 viewBox="0 0 241.8 136" style="enable-background:new 0 0 241.8 136;" xml:space="preserve">
<g>
	<g>
		<path d="M33.7,74.3v1.2c0,0.7,0,1.5-0.1,2.2c-0.1,0.7-0.1,1.4-0.2,2.2c2.2,0.4,4.1,1,5.7,1.9c1.7,0.9,3,2.2,4.1,3.7
			c1.1,1.6,1.9,3.5,2.4,5.9c0.5,2.3,0.6,5.1,0.4,8.3H32.6c0.4-2,0.3-3.8-0.2-5.3c-0.6-1.5-1.6-2.6-3.1-3.3c-1.8,2.8-4.1,5.1-6.8,6.7
			c-2.7,1.6-5.4,2.7-8.3,3.1c-2.2,0.3-3.9,0-5.2-0.9c-1.2-0.9-2-2.2-2.3-3.9c-0.3-1.8,0-3.3,0.7-4.4c0.7-1.1,1.9-1.9,3.4-2.4
			c1.3-0.4,2.5-1,3.6-1.7c1.1-0.7,2-1.6,2.7-2.6c0.8-1.1,1.4-2.4,1.8-3.9c0.4-1.5,0.6-3.4,0.6-5.5v-1.2h-7c-1.8,0-3.2-0.6-4.1-1.9
			c-0.9-1.3-1.4-2.6-1.4-4.1c0-0.7,0.1-1.4,0.3-2.1c0.2-0.7,0.5-1.4,0.9-2c0.4-0.6,1-1.1,1.7-1.4c0.7-0.4,1.6-0.6,2.6-0.6h6.9
			c0.4-4,2.7-6,7-6c2.1,0,3.7,0.5,4.9,1.5c1.2,1,1.9,2.5,2.1,4.5h6.9c1,0,1.9,0.2,2.6,0.6c0.7,0.4,1.3,0.8,1.7,1.4
			c0.4,0.6,0.7,1.2,0.9,2c0.2,0.7,0.3,1.4,0.3,2.1c0,1.4-0.5,2.8-1.4,4.1c-0.9,1.3-2.3,1.9-4.1,1.9H33.7z M53.9,109.1
			c3.1-0.1,6.1,0.2,9.2,0.9c3.1,0.7,6,1.9,8.6,3.6c2.6,1.7,4.9,3.9,6.7,6.7c1.8,2.8,3.1,6.1,3.6,10.1H65.9c-0.5-1.7-1.3-3.2-2.4-4.5
			c-1.1-1.3-2.4-2.4-4-3.3c-1.6-0.9-3.3-1.5-5.3-1.8c-1.9-0.3-4-0.4-6.1-0.1c-1.9,1.8-4.2,3.5-6.8,4.9c-2.6,1.4-5.3,2.6-8.1,3.5
			c-2.8,0.9-5.7,1.5-8.5,1.9c-2.8,0.4-5.4,0.4-7.9,0.2c-1.9-0.2-3.5-1-4.7-2.3c-1.3-1.3-1.8-3-1.7-5c0.1-1.9,0.8-3.4,2.1-4.5
			c1.3-1,2.9-1.5,4.7-1.4c1.8,0.1,3.7,0,5.8-0.4c2.1-0.3,4.1-0.9,6-1.7c1.9-0.8,3.7-1.8,5.3-3.1c1.6-1.3,2.8-2.8,3.6-4.6
			c1.1-2.5,2.4-4.2,3.8-5.2c1.4-0.9,3.2-1.3,5.2-1.2c2.1,0.1,3.7,0.7,5.1,1.8c1.3,1.1,2,2.8,2,5.2V109.1z M65.8,84.5h-3.7v15.8H48.3
			V63c0-2.2,0.7-3.9,2.1-5c1.4-1.1,3-1.7,4.8-1.7c1.8,0,3.4,0.6,4.8,1.7c1.4,1.1,2.1,2.8,2.1,5v9.3h3.7V63c0-2.2,0.7-3.9,2.1-5
			c1.4-1.1,3-1.7,4.8-1.7c1.8,0,3.4,0.6,4.8,1.7c1.4,1.1,2.1,2.8,2.1,5v40H65.8V84.5z"/>
		<path d="M150.7,57.4c2.2,0,3.7,0.6,4.6,1.7c0.9,1.2,1.4,2.4,1.4,3.9c0,1.4-0.5,2.7-1.4,3.9c-0.9,1.2-2.5,1.7-4.6,1.7h-6.9v1.2
			c0,1.1-0.1,2.1-0.2,3.1c2.2,0.2,4.2,0.7,6,1.4c1.8,0.7,3.3,1.7,4.5,3.1c1.2,1.3,2.1,3,2.7,5c0.6,2,0.9,4.3,0.8,7h-13.7
			c0.3-1.8,0-3.4-0.9-4.7c-0.8-1.3-2.2-2-4.2-2.2c-1.2,1.2-2.5,2.2-4,3.1c-1.4,0.8-3,1.6-4.6,2.1v4.6H153c2.4,0,4,0.6,5,1.7
			c1,1.1,1.5,2.5,1.5,4.1c0,1.6-0.5,2.9-1.5,4.1c-1,1.1-2.6,1.7-5,1.7H92c-2.4,0-4-0.6-5-1.7c-1-1.1-1.5-2.5-1.5-4.1
			c0-1.6,0.5-2.9,1.5-4.1c1-1.1,2.6-1.7,5-1.7h22.8v-5.1c-0.3-1.1-0.9-1.9-1.9-2.7c-1-0.7-2.3-1.1-4-1c-2,2.1-4.3,3.7-6.9,4.8
			c-2.6,1.2-5.3,1.7-8,1.6c-0.8,0-1.6-0.1-2.3-0.3c-0.7-0.2-1.4-0.6-2-1c-0.6-0.5-1.1-1.1-1.5-1.8c-0.4-0.7-0.6-1.7-0.6-2.8
			c0-1.4,0.4-2.5,1.3-3.5c0.9-0.9,2-1.5,3.4-1.7c2.6-0.3,4.6-1.3,6-3c1.3-1.7,2-3.7,2-6v-1.2h-6.1c-2.2,0-3.7-0.6-4.6-1.7
			c-0.9-1.2-1.4-2.4-1.4-3.9c0-1.4,0.5-2.7,1.4-3.9c0.9-1.2,2.5-1.7,4.6-1.7H150.7z M95.2,118.2c-2.2,0-3.8-0.5-4.9-1.5
			c-1.1-1-1.7-2.4-1.7-4.2c0-1.8,0.6-3.2,1.7-4.1c1.1-0.9,2.8-1.4,4.9-1.4h49.6c2.4,0,4.3,0.2,5.8,0.5c1.5,0.3,2.6,0.9,3.4,1.8
			c0.8,0.8,1.4,2,1.7,3.5c0.3,1.5,0.4,3.4,0.4,5.6v12.1h-15.8v-10.5c0-1.2-0.6-1.7-1.7-1.7H95.2z M114.5,69.8c0,0.6,0,1.2-0.1,1.7
			c-0.1,0.6-0.1,1.2-0.2,1.7c4.3,0.3,7.6,1.7,9.9,4c1.7-0.7,3-1.6,3.9-2.8c0.9-1.2,1.4-2.8,1.4-4.7v-1.2h-15V69.8z"/>
		<path d="M166.5,79c0-3.5,0.6-6.5,1.7-9.2c1.1-2.7,2.6-4.9,4.6-6.7c2-1.8,4.3-3.2,7.1-4.1c2.7-0.9,5.8-1.4,9.1-1.4
			c3.3,0,6.3,0.5,9.1,1.4c2.7,0.9,5.1,2.3,7.1,4.1c2,1.8,3.6,4,4.7,6.7c1.1,2.7,1.7,5.8,1.7,9.2v28.6c0,3.5-0.6,6.6-1.7,9.2
			c-1.1,2.7-2.6,4.9-4.6,6.7c-2,1.8-4.3,3.1-7.1,4.1c-2.8,0.9-5.8,1.4-9,1.4c-3.3,0-6.3-0.5-9.1-1.4c-2.7-0.9-5.1-2.3-7.1-4.1
			c-2-1.8-3.6-4-4.7-6.7c-1.1-2.7-1.7-5.8-1.7-9.2V79z M182.2,107.9c0,2.7,0.6,4.7,1.9,6c1.3,1.3,2.9,2,4.9,2s3.6-0.7,4.9-2
			c1.3-1.3,2-3.4,2-6V78.6c0-2.7-0.7-4.7-2-6.1c-1.3-1.4-2.9-2-4.9-2c-1.9,0.1-3.6,0.8-4.9,2.1c-1.3,1.3-1.9,3.3-1.9,6V107.9z
			 M220.5,130.4V79.9c0-2.6,0.8-4.5,2.4-5.8c1.6-1.3,3.4-2,5.5-2c2.1,0,3.9,0.7,5.5,2c1.6,1.3,2.4,3.3,2.4,5.8v50.5H220.5z"/>
	</g>
	<circle cx="229" cy="59.7" r="7.2"/>
	<g>
		<path d="M128.1,15.9c-0.1-1.8-0.5-3.9-1.2-6.3c-0.4-1.4-1.9-2.2-3.3-1.8c-1.4,0.4-2.2,1.9-1.8,3.3c0.5,1.6,0.8,3.1,0.9,4.4
			c-0.1,0-0.2,0-0.4,0c-1.2,0-2.4,0.1-3.6,0.2c-1.1-2.9-2.7-6.1-4.9-8.9c-0.9-1.1-2.6-1.3-3.7-0.4c-1.1,0.9-1.3,2.6-0.4,3.7
			c1.6,2,2.8,4.2,3.7,6.4c-1.4,0.3-2.7,0.7-4,1.1c-1.6-1.7-3.5-3.5-5.9-5.3c-1.2-0.9-2.8-0.6-3.7,0.6c-0.9,1.2-0.6,2.8,0.6,3.7
			c1.4,1.1,2.7,2.2,3.8,3.2c-11.1,5.5-18.7,15.9-18.7,27.7c0,1.8,1.5,3.3,3.3,3.3s3.3-1.5,3.3-3.3c0-9.8,6.7-18.3,16.5-22.5
			c0.6,0.9,0.9,1.4,0.9,1.4c0.5,0.9,1.4,1.4,2.3,1.4c0.4,0,0.9-0.1,1.3-0.3c1.3-0.7,1.8-2.3,1.1-3.6c0,0-0.2-0.3-0.4-0.7
			c0.6-0.1,1.1-0.3,1.7-0.4c0.2,1.1,0.4,1.8,0.4,1.8c0.2,1.3,1.3,2.3,2.6,2.3c0.1,0,0.2,0,0.4,0c1.4-0.2,2.4-1.5,2.2-3
			c0-0.1-0.1-0.7-0.3-1.7c0.5,0,1,0,1.5,0c0,0.1-0.1,0.2-0.1,0.2c-0.6,1.3,0,2.9,1.3,3.5c0.4,0.2,0.7,0.2,1.1,0.2c1,0,2-0.6,2.4-1.5
			c0-0.1,0.3-0.8,0.6-2c14.2,2.1,25.1,12.4,25.1,24.9c0,1.8,1.5,3.3,3.3,3.3s3.3-1.5,3.3-3.3C159.3,31.5,145.8,18.3,128.1,15.9z"/>
		<circle cx="133" cy="37.4" r="3.3"/>
		<circle cx="111.9" cy="37.4" r="3.3"/>
		<path d="M131.2,43.4c0,0-3.9,0.9-5.8-1.8c0,0,0,0,0,0c-0.1-0.1-0.1-0.2-0.2-0.3c-0.1-0.1-0.2-0.2-0.3-0.2c0,0,0,0,0,0c0,0,0,0,0,0
			c-0.1-0.1-0.2-0.1-0.4-0.2c0,0,0,0-0.1,0c-0.1,0-0.2-0.1-0.3-0.1c0,0-0.1,0-0.1,0c-0.1,0-0.2,0-0.3,0c0,0-0.1,0-0.1,0
			c-0.1,0-0.2,0-0.3,0c0,0,0,0,0,0c-0.1,0-0.3,0.1-0.4,0.1c-0.1,0-0.2,0.1-0.3,0.2c0,0,0,0,0,0c0,0-0.1,0-0.1,0.1
			c-0.1,0.1-0.2,0.1-0.2,0.2c-0.1,0.1-0.2,0.2-0.2,0.3c0,0,0,0,0,0c-1.8,2.7-5.6,1.8-5.8,1.8c-1.1-0.3-2.1,0.4-2.4,1.4
			c-0.3,1.1,0.4,2.1,1.4,2.4c0.1,0,1.1,0.3,2.5,0.3c1.7,0,4-0.4,5.9-1.9c1.9,1.5,4.2,1.9,5.9,1.9c1.4,0,2.4-0.2,2.5-0.3
			c1.1-0.3,1.7-1.3,1.4-2.4C133.3,43.7,132.2,43.1,131.2,43.4z"/>
	</g>
</g>
</svg>
